<svg xmlns="http://www.w3.org/2000/svg" xmlns:xlink="http://www.w3.org/1999/xlink" viewBox="0,0,256,256" width="64px" height="64px"><g fill="none" fill-rule="nonzero" stroke="none" stroke-width="none" stroke-linecap="none" stroke-linejoin="none" stroke-miterlimit="10" stroke-dasharray="" stroke-dashoffset="0" font-family="none" font-weight="none" font-size="none" text-anchor="none" style="mix-blend-mode: normal"><g transform="scale(8,8)"><path d="M10.003,12.507c-0.157,-1.028 -0.193,-2.055 -0.109,-3.083c0.257,-3.141 2.905,-5.673 6.056,-5.689c0.033,0 0.067,0 0.1,0c3.151,0.016 5.799,2.549 6.056,5.689c0.085,1.034 0.047,2.069 -0.112,3.103" fill="none" stroke="#339af0" stroke-width="2" stroke-linecap="round" stroke-linejoin="round"></path><path d="M23.719,26.95c-5.146,1.4 -10.292,1.4 -15.438,0c-0.565,-0.154 -1.046,-0.556 -1.281,-1.091c-1.714,-3.906 -1.714,-7.812 0,-11.718c0.235,-0.536 0.717,-0.938 1.281,-1.091c5.146,-1.4 10.292,-1.4 15.438,0c0.564,0.154 1.046,0.556 1.281,1.091c1.714,3.906 1.714,7.812 0,11.718c-0.235,0.535 -0.716,0.937 -1.281,1.091z" fill="none" stroke="#339af0" stroke-width="2" stroke-linecap="round" stroke-linejoin="round"></path><circle cx="16" cy="20" r="1" fill="#339af0" stroke="none" stroke-width="1" stroke-linecap="butt" stroke-linejoin="miter"></circle><circle cx="20" cy="20" r="1" fill="#339af0" stroke="none" stroke-width="1" stroke-linecap="butt" stroke-linejoin="miter"></circle><circle cx="12" cy="20" r="1" fill="#339af0" stroke="none" stroke-width="1" stroke-linecap="butt" stroke-linejoin="miter"></circle></g></g></svg>